<svg width="26" height="11" viewBox="0 0 26 11" fill="none" xmlns="http://www.w3.org/2000/svg">
<path fill-rule="evenodd" clip-rule="evenodd" d="M3.34621 1.93296C3.81625 1.97261 4.28629 1.69506 4.58007 1.34316C4.86895 0.981348 5.0599 0.49563 5.01094 0C4.59476 0.0198252 4.08065 0.277553 3.78687 0.639363C3.51758 0.95161 3.28746 1.45715 3.34621 1.93296ZM8.93775 8.31667V0.589797H11.8021C13.2807 0.589797 14.3138 1.62071 14.3138 3.12742C14.3138 4.63414 13.2611 5.67496 11.7629 5.67496H10.1226V8.31667H8.93775ZM5.006 2.02712C4.59191 2.003 4.21406 2.15319 3.90886 2.2745C3.71246 2.35256 3.54615 2.41867 3.41962 2.41867C3.27763 2.41867 3.10445 2.34903 2.91001 2.27084L2.91001 2.27084L2.91 2.27084L2.91 2.27083C2.65521 2.16838 2.36392 2.05124 2.05845 2.05686C1.35829 2.06677 0.707086 2.46823 0.349659 3.1076C-0.38478 4.38632 0.158705 6.27963 0.868663 7.32045C1.2163 7.83591 1.63248 8.40092 2.18086 8.3811C2.42212 8.37188 2.59566 8.29734 2.77526 8.22019C2.98203 8.13138 3.19683 8.03911 3.53223 8.03911C3.856 8.03911 4.0614 8.12897 4.25858 8.21523C4.44606 8.29725 4.62611 8.37602 4.89339 8.37119C5.46136 8.36127 5.81878 7.85573 6.16642 7.34028C6.54157 6.78706 6.70643 6.24714 6.73145 6.1652L6.73438 6.15572C6.73379 6.15511 6.72915 6.15297 6.72097 6.14918C6.59556 6.09106 5.63702 5.64686 5.62783 4.45571C5.6186 3.45591 6.38812 2.94935 6.50925 2.86961L6.50926 2.86961C6.51663 2.86476 6.5216 2.86149 6.52385 2.85978C6.03422 2.12625 5.2704 2.04695 5.006 2.02712ZM16.478 8.37614C17.2223 8.37614 17.9126 7.99451 18.226 7.38984H18.2505V8.31667H19.3472V4.47058C19.3472 3.35542 18.4659 2.63675 17.1097 2.63675C15.8513 2.63675 14.921 3.36533 14.8868 4.3665H15.9541C16.0423 3.8907 16.478 3.57845 17.0754 3.57845C17.8 3.57845 18.2064 3.92043 18.2064 4.54988V4.97612L16.7277 5.06534C15.3519 5.14959 14.6077 5.71957 14.6077 6.71083C14.6077 7.712 15.3764 8.37614 16.478 8.37614ZM16.7962 7.45923C16.1646 7.45923 15.7631 7.15194 15.7631 6.68109C15.7631 6.19538 16.1499 5.91287 16.8892 5.86826L18.2063 5.784V6.22016C18.2063 6.94378 17.5992 7.45923 16.7962 7.45923ZM22.9851 8.61901C22.5102 9.97208 21.9667 10.4181 20.8112 10.4181C20.723 10.4181 20.4293 10.4082 20.3607 10.3884V9.46158C20.4342 9.47149 20.6153 9.4814 20.7084 9.4814C21.2323 9.4814 21.526 9.25837 21.7072 8.67848L21.8149 8.3365L19.8074 2.7111H21.0462L22.4416 7.27585H22.4661L23.8616 2.7111H25.066L22.9851 8.61901ZM10.1225 1.60088H11.4886C12.5168 1.60088 13.1044 2.15599 13.1044 3.13238C13.1044 4.10877 12.5168 4.66883 11.4837 4.66883H10.1225V1.60088Z" fill="black"/>
</svg>
