<svg width="17" height="17" viewBox="0 0 17 17" fill="none" xmlns="http://www.w3.org/2000/svg">
<path fill-rule="evenodd" clip-rule="evenodd" d="M16.6269 8.06459C16.6269 12.5185 13.0165 16.1292 8.56273 16.1292C4.109 16.1292 0.498535 12.5185 0.498535 8.06459C0.498535 3.61064 4.109 0 8.56273 0C13.0165 0 16.6269 3.61064 16.6269 8.06459ZM10.5001 5.06831C11.6219 5.45354 12.4424 6.03037 12.2815 7.10387C12.1645 7.88996 11.7272 8.27015 11.146 8.40326C11.9433 8.81673 12.215 9.60143 11.9626 10.5503C11.4832 11.9157 10.3437 12.0307 8.82811 11.7453L8.4601 13.2131L7.5717 12.9922L7.93465 11.5441C7.70433 11.4871 7.46894 11.4261 7.22647 11.361L6.862 12.8162L5.97461 12.5954L6.34212 11.1246L4.55267 10.6748L4.99408 9.6613C4.99408 9.6613 5.64912 9.83425 5.64001 9.82165C5.89159 9.88367 6.00347 9.7203 6.04751 9.61189L7.04474 5.628C7.05587 5.43992 6.99057 5.20294 6.63066 5.11319C6.64433 5.10361 5.98524 4.95335 5.98524 4.95335L6.22164 4.00792L8.01362 4.45013L8.37809 2.99594L9.26598 3.21679L8.90911 4.64224C9.14804 4.69619 9.38798 4.75115 9.62134 4.80914L9.97569 3.39277L10.8641 3.61362L10.5001 5.06831ZM8.3744 7.49411C8.97957 7.65456 10.2964 8.00369 10.5259 7.08827C10.7601 6.15167 9.48073 5.8688 8.85433 5.7303L8.85428 5.73029L8.85422 5.73027C8.78328 5.71459 8.72071 5.70075 8.66967 5.68803L8.22725 7.45585C8.26939 7.46627 8.3189 7.47939 8.3744 7.49411ZM7.68873 10.3404C8.41356 10.5313 9.99882 10.9489 10.2511 9.94015C10.5092 8.90878 8.97224 8.56524 8.22229 8.39761L8.22222 8.3976C8.13846 8.37888 8.06452 8.36235 8.004 8.3473L7.51601 10.2956C7.56559 10.3079 7.62366 10.3232 7.68866 10.3403L7.68873 10.3404Z" fill="#F7931A"/>
</svg>
